<?xml version="1.0" encoding="UTF-8" standalone="no"?>
<svg
   width="512"
   height="512"
   version="1.1"
   id="svg244"
   sodipodi:docname="boardr.svg"
   inkscape:version="1.2.2 (b0a8486541, 2022-12-01)"
   xmlns:inkscape="http://www.inkscape.org/namespaces/inkscape"
   xmlns:sodipodi="http://sodipodi.sourceforge.net/DTD/sodipodi-0.dtd"
   xmlns="http://www.w3.org/2000/svg"
   xmlns:svg="http://www.w3.org/2000/svg">
  <sodipodi:namedview
     id="namedview246"
     pagecolor="#ffffff"
     bordercolor="#000000"
     borderopacity="0.25"
     inkscape:showpageshadow="2"
     inkscape:pageopacity="0.0"
     inkscape:pagecheckerboard="0"
     inkscape:deskcolor="#d1d1d1"
     showgrid="false"
     inkscape:zoom="1.0859375"
     inkscape:cx="291.91367"
     inkscape:cy="230.21583"
     inkscape:window-width="1352"
     inkscape:window-height="734"
     inkscape:window-x="0"
     inkscape:window-y="0"
     inkscape:window-maximized="1"
     inkscape:current-layer="g242" />
  <defs
     id="defs146">
    <linearGradient
       y2="0"
       x2="0"
       y1="1"
       x1="0"
       id="svg_330">
      <stop
         offset="0"
         stop-color="#3a2354"
         id="stop141" />
      <stop
         offset="1"
         stop-opacity="0.99609"
         stop-color="#754aa6"
         id="stop143" />
    </linearGradient>
  </defs>
  <g
     id="g242">
    <title
       id="title148">Layer 1</title>
    <path
       id="svg_325"
       d="M 7.03103,98.04177 9.00106,77.00908 22.50265,48.50572 44.50524,25.00295 69.00813,13.50159 92.5109,9.00106 l 309.53651,1.00012 23.50277,3.00035 25.50301,9.00106 23.50277,19.5023 14.50171,16.00189 c 10.31955,20.682935 10.46023,32.659307 12.00142,55.00649 l 0.50006,297.53509 -3.00035,21.50254 -9.00106,19.5023 -15.00177,23.00271 -24.50289,15.00177 -30.5036,11.0013 L 126.51492,501.0591 83.00979,498.05875 47.5056,485.05722 25.00295,463.55468 9.00106,432.05096 6.50077,391.04612"
       fill="url(#svg_330)"
       sodipodi:nodetypes="cccccccccccccccccccccccc" />
    <path
       id="svg_217"
       d="m 336.75,3.79 c 21.66667,-0.013333 43.33333,0.1031835 65,0.7205036 29.28015,4.0007725 47.99038,11.4715324 63.51059,22.3080754 8.06037,3.469621 0.32246,2.775268 -1.01059,7.346421 -6.94,-5.68 -16.10696,-10.523813 -24.33363,-14.063813 -13.73,-5.5 -26.95861,-8.827013 -58.20324,-10.1255039 C 317.92415,9.8182061 175.70402,10.613034 87.04,11.34 20.279872,23.281053 8.7609937,76.813774 9.168741,111.71058 3.2039186,110.01117 2.8288823,114.60631 3.2177698,110.78676 5.941291,43.318886 34.697508,8.1503428 107.07,5.78 187.46804,5.392539 271.74265,4.3030009 336.75,3.79 Z"
       fill="#b084e3"
       sodipodi:nodetypes="ccccccccccc" />
    <path
       id="svg_218"
       d="m 504.67318,98.384649 c 0.15462,82.048081 2.6113,208.275711 -0.29077,282.311741 -1.21429,30.57598 -5.82675,68.24607 -7.62923,62.60976 -7.17089,9.53138 2.07314,-28.36716 1.14069,-54.81099 -0.93245,-26.44383 3.13065,-307.387967 -6.46988,-315.739891 1.26977,-26.035098 -40.2605,-36.690626 -25.32423,-45.709293 21.99297,13.966262 36.47351,32.080046 38.57342,71.338673 z"
       fill="#754aa6"
       sodipodi:nodetypes="ccczccc" />
    <path
       id="svg_224"
       d="m 8.79,101.25 c 1.264451,85.20061 1.373961,187.29458 1.836724,235.32691 0.462763,48.03234 0.426801,49.0811 1.006801,73.32777 0.32,9.36667 1.500756,18.26804 1.656475,24.84532 -0.513333,1.76667 -2.020262,4.52692 -3.7469285,5.03359 C 3.5681355,463.37597 4.4046925,88.343978 2.5157917,112.30997 2.8060908,108.89447 7.0619096,111.74841 8.42,110.41 l 0.17,0.3 c 0.086667,0.14 0.13,0.13 0.13,-0.03 z"
       fill="#845db0"
       sodipodi:nodetypes="czcccccccc" />
    <path
       id="svg_225"
       d="m252.75,135.96q-7.06,-0.25 -14,0.62c-2.8,0.35 -6.37,-0.58 -9.42,0.94c-2.7,1.35 -6.83,4.86 -9.83,4.02q0.44,-0.55 0.21,-1.16a0.49,0.48 67 0 1 0.25,-0.62q5.95,-2.75 11.03,-4.02c4.89,-1.21 10.1,-0.01 14.41,-0.03q3.69,-0.02 7.35,0.25z"
       fill="#b2adb6" />
    <path
       id="svg_226"
       d="m201.25,136.21l-4.5,-0.25q2.29,-0.63 4.5,0.25z"
       fill="#b2adb6" />
    <path
       id="svg_227"
       d="m196.75,135.96l4.5,0.25c7.2,0.34 13.18,-0.87 18.25,5.33c3,0.84 7.13,-2.67 9.83,-4.02c3.05,-1.52 6.62,-0.59 9.42,-0.94q6.94,-0.87 14,-0.62q10.67,0.7 21.36,0.66c3.38,-0.01 5.87,1.26 8.11,3.48a1.24,1.23 67 0 0 0.86,0.35q11.5,0.11 23.01,0.02c3.71,-0.03 6.68,2.44 9.66,4.32q1.82,1.5 4.25,0.92c6.83,1.69 16.68,0.85 26.97,0.76a1.39,1.38 -26.2 0 1 0.89,0.3q5.01,3.9 7.79,4.38q6.98,1.18 19.47,0.01q3.02,-0.28 5.08,0.63q2.19,0.95 4.12,2.46a1.81,1.79 -23.5 0 0 0.9,0.35q13.21,1.33 26.54,0.81c3.6,-0.14 9.55,6.13 13.12,9.75a1.25,1.22 -21.1 0 0 0.86,0.37q3.22,0.1 6.26,0.51q4.85,0.64 6.75,5.7l13,1.72q4.66,4.72 10.5,7.83l3.33,2.38a0.7,0.7 0 0 1 0.04,1.11l-13.62,11.26c-3.35,-0.35 -12.73,-1.02 -13.46,3.46l-5.29,5.29q-5.22,-2.32 -9.75,0.92l-8.25,6.83l-26.94,-0.03a1.56,1.52 -62.5 0 0 -0.91,0.3q-4.1,3.05 -6.14,2.98q-12.4,-0.43 -24.76,0.25q-3.04,0.17 -4.76,3.18l-4.7,2.03q-3.02,-0.51 -6.06,0.42l-19.44,0.08q-2.67,0.02 -4.89,1.52l-5.34,3.63a4.96,4.94 27.9 0 1 -2.76,0.84q-11.54,0 -22.99,0.03c-1.52,0.01 -3.67,2.24 -5.55,2.61c-3.48,0.69 -7.54,0.12 -10.12,0.12q-9.33,-0.01 -18.68,0.01c-3.54,0.01 -5.31,1.58 -6.89,4.46q-0.97,7.31 -0.53,14.79c0.24,4.18 -4.26,8.12 -6.54,11.28q-8.45,-0.6 -10.19,0.27q-3.52,1.77 -2.77,5.69l-0.33,8q-0.9,2.65 -3,4.5c-2.93,0.8 -7.72,0.34 -8.71,3.71q-0.93,1.38 -0.16,2.88a0.54,0.52 46 0 1 0,0.51c-0.15,0.28 -0.3,0.44 -0.35,0.74q-2,13.07 -3.45,26.24c-0.39,3.52 -2.79,5.95 -4.92,8.55a0.85,0.84 23.4 0 1 -0.78,0.3c-1.12,-0.16 -1,5.3 -1.15,6.25c-0.84,5.38 -0.99,9.85 -0.95,15.04a1.43,1.41 -65.1 0 0 0.32,0.9q3.36,4.16 7.63,7.45c3.52,2.71 7.61,1.29 11.59,1.98c5.15,0.89 12.16,8.32 15.9,11.97a3,2.97 21.8 0 1 0.89,2.05l0.22,9.93c-0.19,6.42 1.11,11.48 -4.54,16.04q-5.15,1.7 -9,1.7q-52.72,0.03 -105.44,-0.23q-8.5,-0.04 -12.88,-5.89q-1.39,-1.86 -1.4,-4.18l-0.05,-16.85q0,-1.8 1.29,-3.06l12.12,-11.77q1.57,-1.52 1.8,-3.7q1.12,-10.71 2.63,-22.36c3.4,-26.19 10.53,-51.54 18.12,-76.77q1.12,-3.74 0.83,-10.06c-0.27,-5.86 -4.69,-11.02 -9.15,-14.3q-2.18,-1.6 -4.88,-1.58c-12.59,0.08 -28.16,2.97 -36.67,-8.3q-2.07,-2.75 -11.84,-13.93c-1.57,-1.79 -6.07,-2.03 -8.12,-3.37q-2.33,-1.51 -3.95,-3.92a1.7,1.7 0 0 1 -0.28,-0.9c-0.09,-3.7 -1.03,-22.81 0.62,-24.78c2.44,-2.39 4.81,-5.74 8.75,-5.23q2.59,-0.17 4.8,-2.78q7.42,-8.75 14.77,-17.69c2.69,-1.15 4.36,-2.59 7.43,-2.57q10.75,0.09 21.5,-0.31q2.47,0.45 4.66,-0.52a1.84,1.83 -83.8 0 0 0.74,-0.6q0.76,-1.11 2.34,-1.03l4.42,-2.32q0.44,-0.24 0.95,-0.24q28.23,0 56.46,0c1.25,0 2.45,-0.31 3.68,-0.54zm-59.5,5.75l-6.22,4.47a1.76,1.73 -61.8 0 1 -0.99,0.31l-28.63,0.01a1.56,1.52 -62.5 0 0 -0.91,0.3q-2.19,1.62 -4.9,4.55q-12.09,13.09 -15.5,16.93a1.38,1.35 -73.6 0 1 -0.79,0.44l-6.09,1.01q-3,0.5 -3.06,3.54l-0.39,18.44q-0.07,3.15 3.05,3.61q5.43,0.82 9,4.84q7.23,8.14 14.85,16.24q1.84,1.96 4.53,1.95c5.72,-0.03 11.46,1.61 17.09,1.66q5.59,0.04 11.22,0.35q2.2,0.12 3.98,1.43c14.27,10.5 13.97,21.92 9.14,37.49c-7.77,25.01 -13.7,47.9 -16.92,73.72l-1.17,17.75l-1.17,3.74a1.71,1.68 -10.3 0 1 -0.57,0.81q-7.64,6.03 -13.56,13.77a1.68,1.66 64.9 0 0 -0.34,0.95c-0.44,9.82 -2.56,19.9 9.48,19.95c35.52,0.13 71.04,-0.28 106.56,0.21c3.9,0.05 6.37,-2.21 6.56,-6.24q0.31,-6.97 0.06,-14.03a1.38,1.35 -69.7 0 0 -0.42,-0.94l-10.62,-10.08a1.48,1.42 66.6 0 0 -0.93,-0.39l-9.18,-0.37q-2.53,-0.1 -4.63,-1.51q-4.87,-3.24 -8.74,-8.64q-2.29,-3.17 -2.1,-5.24q1.03,-11.56 2.27,-23.15a1.17,1.15 -18.1 0 1 0.4,-0.78l4.36,-3.82a3.25,3.2 -17.1 0 0 1.07,-1.99q2.27,-16.39 3.79,-31.18c0.68,-6.5 5.74,-6.23 10.75,-6.77a1.12,1.1 11.5 0 0 0.85,-0.55q1.37,-2.35 0.73,-5.18a0.66,0.64 85.1 0 0 -0.59,-0.51l-7.49,-0.46a0.51,0.5 -88.2 0 1 -0.47,-0.51q-0.07,-5.65 1.44,-11.1a2.09,2.09 0 0 1 2.04,-1.53q9.07,0.13 18.91,0.11c4.17,-0.01 4.98,-2.5 4.97,-6.27c-0.05,-10.8 -1.52,-17.37 8.95,-23.8a1.65,1.64 -60.8 0 1 0.87,-0.25l29.23,0a1.67,1.64 -61.4 0 0 0.92,-0.28c6.74,-4.57 22.25,-2.76 30.38,-2.71a3.47,3.47 0 0 0 2.44,-0.98c2.71,-2.62 6.2,-5.35 10.31,-5.32q11.56,0.08 23.15,0.03c3.69,-0.01 5.98,-2.14 8.29,-4.64a1.08,1.06 -68.5 0 1 0.79,-0.35l26.45,0a1.5,1.45 -62 0 0 0.86,-0.28c2.67,-1.95 4.38,-3.27 7.96,-3.25q12,0.06 24.04,0.02a1.83,1.79 -61 0 0 0.98,-0.29l8.81,-5.9a0.84,0.83 -20.2 0 0 0.36,-0.77l-0.13,-1.32a0.61,0.6 86.5 0 1 0.59,-0.67l8,-0.14q2.83,-0.04 3.71,-2.74l0.97,-2.99a0.71,0.7 7.3 0 1 0.63,-0.48l9.43,-0.44l5.04,0.21q1.79,-2.57 4.5,-4q3,-0.85 5.39,-2.77a0.3,0.29 -47.6 0 0 -0.02,-0.47l-0.33,-0.22l-6.1,-2.95q-0.44,-0.22 -0.72,-0.63c-1.48,-2.14 -3.06,-3.41 -5.87,-3.57q-5.22,-0.31 -11.09,-0.39a1.55,1.54 81 0 1 -1.45,-1.06l-1.17,-3.42a1.02,1 85.8 0 0 -0.76,-0.67q-5.13,-1.05 -10.28,-0.26a0.53,0.52 85.8 0 1 -0.6,-0.52l0,-1.76a1.11,1.11 0 0 0 -0.45,-0.91l-9,-6.76a2.92,2.91 -26.4 0 0 -1.76,-0.59q-11.18,-0.03 -22.33,0.01c-3.99,0.01 -6.33,-1.19 -9.01,-3.81a1.24,1.2 66.4 0 0 -0.85,-0.35l-24.58,-0.16q-2.19,-0.02 -3.85,-1.43l-3.7,-3.15a1.5,1.45 64.5 0 0 -0.96,-0.36q-14.08,-0.24 -28.2,-0.35c-3.68,-0.03 -7.07,-3.1 -9.73,-5.36a1.46,1.45 -23.5 0 0 -0.88,-0.34q-9.49,-0.4 -22.97,-0.03q-3.81,0.1 -6.68,-2.88a1.19,1.15 -21.4 0 0 -0.84,-0.35l-31.03,0.24q-6.54,6.76 -11.79,14.02a0.98,0.97 17.7 0 1 -0.79,0.4q-47.34,-0.14 -94.56,-0.18c-0.73,0 -1.47,-0.46 -1.58,-1.18l-0.71,-6.04q0.29,-2.28 1.89,-3.88a0.92,0.91 -27.9 0 0 0.26,-0.84l-0.4,-1.95q11.24,0.35 22.49,0.23c1.6,-0.02 3.56,1.05 5.01,-0.56l6.31,-0.27a0.81,0.81 0 0 1 0.78,0.51l0.28,0.74a1.4,1.35 3.3 0 0 0.67,0.73l15.06,7.46q2.12,1.05 4.06,-0.3q4.14,-2.88 8.86,-6.14c2.91,-2.02 7.09,-1.69 10.47,-1.72a0.75,0.74 -79.9 0 0 0.7,-0.49c1.04,-2.7 -6.22,-1.72 -7.44,-1.69l-11.75,-0.25l-11.23,-0.54a0.9,0.9 0 0 0 -0.87,0.54l-0.67,1.45a0.72,0.72 0 0 1 -0.63,0.43q-3.15,0.15 -6.06,-0.69c-3.31,-0.96 -5.37,-0.86 -8.5,-0.73q-0.46,-0.89 -1.29,-0.99a1.16,1.14 -62.7 0 0 -0.91,0.3l-0.6,0.56a1.26,1.23 -64.2 0 1 -0.88,0.32q-11.68,-0.53 -23.35,-0.25q-0.65,0.02 -1.26,0.27zm89.56,3.61c-3.66,2.55 -8.05,-0.21 -9.22,5.95a0.45,0.45 0 0 0 0.47,0.54l5.9,-0.31a1.21,1.21 0 0 0 0.79,-0.34l10.63,-10.31q0.34,-0.34 -0.14,-0.35l-0.78,-0.01a1.64,1.64 0 0 0 -0.92,0.26q-3.39,2.24 -6.73,4.57zm-68.87,2.43a0.3,0.3 0 0 0 -0.24,0.12l-2.83,3.9a0.3,0.3 0 0 0 0.25,0.48l9.45,0a0.3,0.3 0 0 0 0.23,-0.1l3.34,-3.9a0.3,0.3 0 0 0 -0.23,-0.5l-9.97,0zm-16.91,4.22c4.02,0.01 9.36,1.56 11.46,-3.23a0.35,0.35 0 0 0 -0.31,-0.49c-4.04,-0.21 -11.45,-0.75 -11.63,3.21a0.48,0.48 0 0 0 0.48,0.51z"
       fill="#dfdde1" />
    <path
       id="svg_228"
       d="m131.24,139.06q-1.58,-0.08 -2.34,1.03a1.84,1.83 -83.8 0 1 -0.74,0.6q-2.19,0.97 -4.66,0.52q1.14,-0.8 2.6,-0.26a0.66,0.65 -60.7 0 0 0.75,-0.22q1.76,-2.3 4.39,-1.67z"
       fill="#b2adb6" />
    <path
       id="svg_229"
       d="m165.54,141.5l-0.04,0.96c-1.45,1.61 -3.41,0.54 -5.01,0.56q-11.25,0.12 -22.49,-0.23l-0.75,-1.08q0.61,-0.25 1.26,-0.27q11.67,-0.28 23.35,0.25a1.26,1.23 -64.2 0 0 0.88,-0.32l0.6,-0.56a1.16,1.14 -62.7 0 1 0.91,-0.3q0.83,0.1 1.29,0.99z"
       fill="#645c6d" />
    <path
       id="svg_230"
       d="m193.5,141.04q0.26,1.24 -0.38,1.99a1,1 0 0 1 -0.84,0.35c-2,-0.17 -8.75,-1.35 -9.85,0.31a0.62,0.61 -69.5 0 0 0.43,0.95c3.31,0.45 18.17,0.62 19.88,-2.19a0.82,0.81 -71.9 0 1 0.74,-0.38q1.1,0.07 1.77,-0.78c1.22,-0.03 8.48,-1.01 7.44,1.69a0.75,0.74 -79.9 0 1 -0.7,0.49c-3.38,0.03 -7.56,-0.3 -10.47,1.72q-4.72,3.26 -8.86,6.14q-1.94,1.35 -4.06,0.3l-15.06,-7.46a1.4,1.35 3.3 0 1 -0.67,-0.73l-0.28,-0.74a0.81,0.81 0 0 0 -0.78,-0.51l-6.31,0.27l0.04,-0.96c3.13,-0.13 5.19,-0.23 8.5,0.73q2.91,0.84 6.06,0.69a0.72,0.72 0 0 0 0.63,-0.43l0.67,-1.45a0.9,0.9 0 0 1 0.87,-0.54l11.23,0.54z"
       fill="#3e3845" />
    <path
       id="svg_231"
       d="m217.59,151.27c1.17,-6.16 5.56,-3.4 9.22,-5.95q3.34,-2.33 6.73,-4.57a1.64,1.64 0 0 1 0.92,-0.26l0.78,0.01q0.48,0.01 0.14,0.35l-10.63,10.31a1.21,1.21 0 0 1 -0.79,0.34l-5.9,0.31a0.45,0.45 0 0 1 -0.47,-0.54z"
       fill="#3e3845" />
    <path
       id="svg_232"
       d="m193.5,141.04l11.75,0.25q-0.67,0.85 -1.77,0.78a0.82,0.81 -71.9 0 0 -0.74,0.38c-1.71,2.81 -16.57,2.64 -19.88,2.19a0.62,0.61 -69.5 0 1 -0.43,-0.95c1.1,-1.66 7.85,-0.48 9.85,-0.31a1,1 0 0 0 0.84,-0.35q0.64,-0.75 0.38,-1.99z"
       fill="#645c6d" />
    <path
       id="svg_233"
       d="m137.25,141.71l0.75,1.08l0.4,1.95a0.92,0.91 -27.9 0 1 -0.26,0.84q-1.6,1.6 -1.89,3.88c-2.41,0.03 -3.67,1.47 -5.73,1.83q-3.74,0.64 -7.52,0.5c-2.76,-0.2 -6.85,-0.37 -9.3,1.01c-3.05,0.06 -8.92,1.21 -10.7,4.16l-3,3l-4.59,4.7a1.27,1.27 0 0 0 -0.36,0.86q-0.36,12.43 0.73,25.1l-0.3,3.52a1.14,1.12 22.8 0 0 0.4,0.96l4.07,3.41q0.41,0.35 0.67,0.82q0.43,0.76 1.23,0.94a0.64,0.63 -70.8 0 0 0.71,-0.35q1,-2.07 2.94,-3.13l24.52,0.29a1.02,1.02 0 0 0 0.9,-1.51l-1.18,-2.16q4.37,-1.76 6.26,-1.74q69.11,0.68 108.69,0.25q19.06,-0.2 29.04,0.29a1.62,1.61 -58.7 0 0 0.93,-0.23q2.82,-1.64 4.11,1.25l0.02,23.77l-0.05,2.99a0.55,0.55 0 0 0 0.55,0.56l6.63,-0.04a0.49,0.49 0 0 0 0.48,-0.58q-0.3,-1.5 0.85,-1.97q11.2,-0.85 22.4,-0.35c2.8,0.12 4.54,-1.29 6.47,-3a1.12,1.1 69.4 0 0 0.37,-0.83c0.06,-19.84 1.36,-40.39 -0.84,-60.08a1.38,1.38 0 0 0 -0.41,-0.85c-2.93,-2.87 -5.5,-4.35 -9.89,-4.36q-9.44,-0.01 -18.85,0.05l-0.75,0q-3.68,-0.63 -7.1,-3.29q-17.29,-2.1 -30.65,-1.23q-1.79,0.12 -2.32,-1.58l31.03,-0.24a1.19,1.15 -21.4 0 1 0.84,0.35q2.87,2.98 6.68,2.88q13.48,-0.37 22.97,0.03a1.46,1.45 -23.5 0 1 0.88,0.34c2.66,2.26 6.05,5.33 9.73,5.36q14.12,0.11 28.2,0.35a1.5,1.45 64.5 0 1 0.96,0.36l3.7,3.15q1.66,1.41 3.85,1.43l24.58,0.16a1.24,1.2 66.4 0 1 0.85,0.35c2.68,2.62 5.02,3.82 9.01,3.81q11.15,-0.04 22.33,-0.01a2.92,2.91 -26.4 0 1 1.76,0.59l9,6.76a1.11,1.11 0 0 1 0.45,0.91l0,1.76a0.53,0.52 85.8 0 0 0.6,0.52q5.15,-0.79 10.28,0.26a1.02,1 85.8 0 1 0.76,0.67l1.17,3.42a1.55,1.54 81 0 0 1.45,1.06q5.87,0.08 11.09,0.39c2.81,0.16 4.39,1.43 5.87,3.57q0.28,0.41 0.72,0.63l6.1,2.95l-4.43,2.46a1.12,1.1 83 0 0 -0.53,0.69l-0.08,0.31q-2.71,1.43 -4.5,4q-2.51,-0.77 -5.04,-0.21l-9.43,0.44a0.71,0.7 7.3 0 0 -0.63,0.48l-0.97,2.99q-0.88,2.7 -3.71,2.74l-8,0.14a0.61,0.6 86.5 0 0 -0.59,0.67l0.13,1.32a0.84,0.83 -20.2 0 1 -0.36,0.77l-8.81,5.9a1.83,1.79 -61 0 1 -0.98,0.29q-12.04,0.04 -24.04,-0.02c-3.58,-0.02 -5.29,1.3 -7.96,3.25a1.5,1.45 -62 0 1 -0.86,0.28l-26.45,0a1.08,1.06 -68.5 0 0 -0.79,0.35c-2.31,2.5 -4.6,4.63 -8.29,4.64q-11.59,0.05 -23.15,-0.03c-4.11,-0.03 -7.6,2.7 -10.31,5.32a3.47,3.47 0 0 1 -2.44,0.98c-8.13,-0.05 -23.64,-1.86 -30.38,2.71a1.67,1.64 -61.4 0 1 -0.92,0.28l-29.23,0a1.65,1.64 -60.8 0 0 -0.87,0.25c-10.47,6.43 -9,13 -8.95,23.8c0.01,3.77 -0.8,6.26 -4.97,6.27q-9.84,0.02 -18.91,-0.11a2.09,2.09 0 0 0 -2.04,1.53q-1.51,5.45 -1.44,11.1a0.51,0.5 -88.2 0 0 0.47,0.51l7.49,0.46a0.66,0.64 85.1 0 1 0.59,0.51q0.64,2.83 -0.73,5.18a1.12,1.1 11.5 0 1 -0.85,0.55c-5.01,0.54 -10.07,0.27 -10.75,6.77q-1.52,14.79 -3.79,31.18a3.25,3.2 -17.1 0 1 -1.07,1.99l-4.36,3.82a1.17,1.15 -18.1 0 0 -0.4,0.78q-1.24,11.59 -2.27,23.15q-0.19,2.07 2.1,5.24q3.87,5.4 8.74,8.64q2.1,1.41 4.63,1.51l9.18,0.37a1.48,1.42 66.6 0 1 0.93,0.39l10.62,10.08a1.38,1.35 -69.7 0 1 0.42,0.94q0.25,7.06 -0.06,14.03c-0.19,4.03 -2.66,6.29 -6.56,6.24c-35.52,-0.49 -71.04,-0.08 -106.56,-0.21c-12.04,-0.05 -9.92,-10.13 -9.48,-19.95a1.68,1.66 64.9 0 1 0.34,-0.95q5.92,-7.74 13.56,-13.77a1.71,1.68 -10.3 0 0 0.57,-0.81l1.17,-3.74q3.58,0.84 5.87,0.5c3.26,0.07 7.42,-3.6 10.09,-5.42q1.58,-1.08 3.48,-1.08l25.78,0a1.99,1.99 0 0 1 1.46,0.64l11.4,12.43q0.88,2.61 -0.85,2.72a3.85,3.84 63.6 0 1 -2.76,-0.93l-9.42,-8.18a3.64,3.62 -23.9 0 0 -2.33,-0.89l-22.07,-0.37a3.82,3.82 0 0 0 -2.21,0.66q-5.67,3.88 -10.54,8.71l-3.94,2.42l-8.87,0.72a1.65,1.64 81.5 0 0 -1.47,2l0.15,0.66a1.84,1.84 0 0 0 1.81,1.43q23.11,-0.29 45.04,-0.06c9.15,0.09 26.4,0.95 39.67,0.54a1.51,1.51 0 0 1 1.01,0.34l4.47,3.72a1.24,1.22 20.2 0 1 0.44,0.94l0,10.39a0.57,0.57 0 0 0 0.56,0.57l8.88,0.06q2.45,0.02 2.43,-2.43l-0.06,-10.53a1.6,1.57 -63.5 0 0 -0.28,-0.87q-1.36,-1.95 -3.35,-3.2c-4.61,-2.9 -20.98,1.13 -22.44,-1.42a0.51,0.51 0 0 1 0.24,-0.72q4.53,-1.95 7.72,-5.73q1.14,-1.34 -0.6,-1.61q-1.8,-0.28 -2.86,-1.41q-4.57,-4.69 -6.29,-10.95a0.58,0.57 77.8 0 0 -0.63,-0.41q-3.49,0.46 -6.19,-0.71q-0.04,-7.98 1.99,-15.54c0.48,-1.76 1.74,-3.42 1.95,-5.64c0.35,-3.87 1.12,-7.63 1.77,-11.19q0.41,-2.24 -1.74,-2.98l-18.8,-6.48q-0.37,-0.13 -0.05,-0.35c1.43,-0.99 18.38,5.55 20.82,6.64a0.41,0.41 0 0 0 0.57,-0.3l2.34,-12.99a0.59,0.58 13.6 0 0 -0.41,-0.67l-23.43,-7.08a0.56,0.55 30.7 0 1 -0.24,-0.92c1.02,-1.04 22.18,6.55 24.75,7.65a0.53,0.52 15 0 0 0.73,-0.42l1.02,-8.79a2.09,2.09 0 0 0 -1.17,-2.11c-6.36,-3.06 -13.59,-3.36 -20.48,-4.12q-0.37,-0.04 -0.54,-0.21q-0.31,-0.28 0.1,-0.31q12.46,-1.13 23.26,4.64a0.63,0.62 -53.7 0 0 0.74,-0.12l7.31,-7.67a1.1,1.09 63.5 0 0 0.29,-0.88c-0.75,-5.96 0.7,-13.3 1.15,-19.37a0.53,0.53 0 0 1 0.54,-0.49q2.21,0.02 3.9,-1.62q1.67,0.69 3.46,0.57a0.56,0.56 0 0 0 0.52,-0.55q0.06,-10.08 -0.01,-20.21c-0.03,-4.56 1.27,-7.2 4.89,-9.58c2.99,-1.96 14.85,-0.59 19,-0.63q0.6,-0.01 0.17,-0.42l-10.36,-9.7a1.38,1.38 0 0 0 -0.95,-0.38l-36.18,-0.38a0.85,0.84 0.7 0 0 -0.86,0.83l-0.07,3.76a0.61,0.61 0 0 1 -0.62,0.6l-11.74,-0.16a1.49,1.48 89.6 0 1 -1.46,-1.45l-0.07,-2.82a0.61,0.6 0.5 0 0 -0.59,-0.59l-15.41,-0.41a1.67,1.63 -21.2 0 1 -1.12,-0.48l-8.12,-8.04a1.3,1.28 67.1 0 0 -0.91,-0.38l-13.82,-0.16q-1.68,-0.02 -0.43,1.1q10.18,9.12 17.6,20.09c5.93,8.77 5.22,16 3.79,25.93l-2.19,-1.14a0.77,0.76 35.2 0 0 -0.9,0.15q-3.92,4.19 -9.14,6.55a1.15,1.14 -25.9 0 0 -0.55,1.58q2.22,4.26 6.38,6.6a0.45,0.45 0 0 1 0.09,0.73l-0.4,0.38a0.5,0.5 0 0 1 -0.68,0l-2.73,-2.59a0.53,0.52 -59.1 0 0 -0.86,0.22q-1.79,5.67 -1.9,11.67q-0.04,2.19 1.22,3.97q2.67,3.78 0.12,6.18q-0.75,-1.95 -2.67,-2.26a1.27,1.22 -56.9 0 0 -0.91,0.21q-6.04,4.16 -0.95,10.25c-0.63,1.72 -0.54,2.83 0.32,4.61q1.64,3.38 0.77,6.93q-2,-1.37 -3.8,-0.71c-4.97,1.83 -0.59,13.29 2.57,9.13l1.24,1.74a0.61,0.6 52.2 0 1 -0.1,0.82l-1.85,1.57a0.84,0.84 0 0 0 -0.28,0.81l1.74,9.06l-14.25,9.58q-3.22,0.68 -5.54,-1.54c3.22,-25.82 9.15,-48.71 16.92,-73.72c4.83,-15.57 5.13,-26.99 -9.14,-37.49q-1.78,-1.31 -3.98,-1.43q-5.63,-0.31 -11.22,-0.35c-5.63,-0.05 -11.37,-1.69 -17.09,-1.66q-2.69,0.01 -4.53,-1.95q-7.62,-8.1 -14.85,-16.24q-3.57,-4.02 -9,-4.84q-3.12,-0.46 -3.05,-3.61l0.39,-18.44q0.06,-3.04 3.06,-3.54l6.09,-1.01a1.38,1.35 -73.6 0 0 0.79,-0.44q3.41,-3.84 15.5,-16.93q2.71,-2.93 4.9,-4.55a1.56,1.52 -62.5 0 1 0.91,-0.3l28.63,-0.01a1.76,1.73 -61.8 0 0 0.99,-0.31l6.22,-4.47zm184.46,40.54c0.04,2.6 0.13,24.95 1.2,25.17a0.46,0.46 0 0 0 0.55,-0.45l0.07,-23.79a1.72,1.72 0 0 1 1.7,-1.72c5.98,-0.08 16.52,-1.82 21.98,0.79l0.58,23.67q0.01,0.61 0.49,0.23c1.28,-1.03 0.82,-40.43 0.3,-45.64a0.97,0.94 11 0 0 -0.53,-0.76q-0.48,-0.23 -0.62,0.51q-12.01,-0.9 -23.89,1.24q0.08,-1.34 -0.84,-1.84q-2.13,-1.15 -2.71,1.2q-2.32,9.42 -1.32,19.14a0.65,0.63 1.9 0 0 0.54,0.56q1.63,0.26 2.5,1.69zm34.08,2q-0.49,1.76 0.57,2.88a1.21,1.18 -21.7 0 0 0.86,0.36l22.78,-0.3c0.06,1.31 0.08,5.68 0.69,5.78a0.44,0.43 9.4 0 0 0.5,-0.35q1.87,-12.01 -0.29,-24.21q0.02,-2.99 -2.45,-5.09a1.53,1.52 67.6 0 0 -0.88,-0.37q-10.18,-0.9 -20.36,-0.17a1.66,1.66 0 0 0 -1.54,1.67l0.12,19.8zm-3.64,-19.56q-0.39,6.07 -0.29,19.99q0.01,1.51 0.83,1.9a0.38,0.38 0 0 0 0.55,-0.31q0.47,-6.72 0.01,-17.01q-0.13,-2.88 -0.85,-4.61q-0.21,-0.51 -0.25,0.04zm35.85,6.77q-1.03,-0.13 -1.95,0.17a0.73,0.72 82.7 0 0 -0.51,0.67q-0.28,6.2 1.46,12.16q-0.8,1.07 -0.61,2.17a0.61,0.59 -6 0 0 0.62,0.49q10.64,-0.59 21.24,-0.32q2.67,0.07 6,-2.43q2.42,1.11 4.14,3.94q1.02,1.69 1.07,-0.28l0.35,-12.48q0.03,-1.12 -0.75,-0.31l-4.93,5.19q-1.23,1.3 -3.02,1.29l-21.49,-0.08a0.66,0.66 0 0 1 -0.64,-0.78l0.22,-1.15q0.1,-0.49 -0.03,-0.97q-0.36,-1.41 0.83,-1.49q5.43,-0.39 20.38,-0.29a0.47,0.47 0 0 0 0.48,-0.53l-0.61,-4.97q0.37,-0.89 0.4,-1.31a1.38,1.38 0 0 0 -1.37,-1.49l-22.53,-0.12a0.63,0.61 -79.7 0 0 -0.6,0.43l-0.11,0.32a0.6,0.6 0 0 0 0.37,0.76q1.12,0.38 1.59,1.41zm-311.1,15.76a0.77,0.77 0 0 0 0.61,0.74l3.29,0.73a0.77,0.77 0 0 0 0.93,-0.77l-0.29,-15.67a0.77,0.77 0 0 0 -1.01,-0.72l-3.2,1.07a0.77,0.77 0 0 0 -0.52,0.74l0.19,13.88zm-2.64,-7.14q0.2,0.4 0.56,0.41a0.66,0.66 0 0 0 0.69,-0.67l-0.01,-6.02a0.67,0.66 89.6 0 0 -0.67,-0.67c-3.83,0.03 -3.28,5.01 -1,6.47a1.23,1.21 -87.3 0 1 0.43,0.48zm349.74,4.13l0.53,7.01a0.57,0.56 87.8 0 0 0.56,0.53l7.91,0a0.7,0.69 3.8 0 0 0.69,-0.6l0.6,-4.65c1.47,-1.35 2.83,-0.3 4.23,-0.24c3.69,0.17 14.27,1.61 14.29,-2.74a1.33,1.33 0 0 0 -0.39,-0.94l-1.56,-1.51a1.22,1.2 -23.8 0 0 -0.89,-0.34c-4.99,0.21 -8.75,-0.34 -13.72,0.73l-0.25,0l-1.46,-1.21q0.27,-1.79 -0.73,-3.06a1.09,1.09 0 0 0 -0.81,-0.41l-8.69,-0.34a0.51,0.51 0 0 0 -0.53,0.53l0.22,7.24zm-350.65,-3.31a1.44,1.44 0 0 0 -1.85,1.36l-0.01,1a0.76,0.74 8.6 0 0 0.55,0.73l1.61,0.46a0.65,0.65 0 0 0 0.76,-0.32q1.35,-2.53 -1.06,-3.23zm-0.04,10.87c3.5,2.54 2.24,-4.53 2.01,-5.81a0.5,0.49 77.7 0 0 -0.6,-0.39l-2.15,0.52a0.6,0.59 -8.8 0 0 -0.45,0.61l0.18,3.23a2.46,2.45 -73.8 0 0 1.01,1.84zm337.11,3.23a1.14,1.14 0 0 0 -1.14,-1.14l-21.82,0a1.14,1.14 0 0 0 -1.14,1.14l0,0.16a1.14,1.14 0 0 0 1.14,1.14l21.82,0a1.14,1.14 0 0 0 1.14,-1.14l0,-0.16zm-301.9222,8.7258a0.84,0.84 0 0 0 -0.7508,-0.9205l-3.5418,-0.3598a0.84,0.84 0 0 0 -0.9206,0.7508l-0.0424,0.4179a0.84,0.84 0 0 0 0.7508,0.9205l3.5418,0.3598a0.84,0.84 0 0 0 0.9206,-0.7508l0.0424,-0.4179zm22.2297,-0.1722a0.86,0.86 0 0 0 -0.817,-0.901l-3.7355,-0.1827a0.86,0.86 0 0 0 -0.901,0.817l-0.0215,0.4395a0.86,0.86 0 0 0 0.817,0.901l3.7355,0.1827a0.86,0.86 0 0 0 0.901,-0.817l0.0215,-0.4395zm-11.2299,-0.162a0.68,0.68 0 0 0 -0.6976,-0.662l-3.8787,0.1016a0.68,0.68 0 0 0 -0.6619,0.6975l0.023,0.8797a0.68,0.68 0 0 0 0.6976,0.662l3.8787,-0.1016a0.68,0.68 0 0 0 0.6619,-0.6975l-0.023,-0.8797zm59.596,3.0326a0.52,0.52 0 0 0 -0.5081,-0.5317l-9.8974,-0.2246a0.52,0.52 0 0 0 -0.5317,0.5081l-0.01,0.4398a0.52,0.52 0 0 0 0.5081,0.5317l9.8974,0.2246a0.52,0.52 0 0 0 0.5317,-0.5081l0.01,-0.4398zm13.3465,0.0418a0.67,0.67 0 0 0 -0.6665,-0.6735l-8.5799,-0.045a0.67,0.67 0 0 0 -0.6735,0.6665l-0.0003,0.06a0.67,0.67 0 0 0 0.6665,0.6735l8.5799,0.045a0.67,0.67 0 0 0 0.6735,-0.6665l0.0003,-0.06zm-70.2225,4.9941a1.05,1.05 0 0 0 -0.9859,-1.1104l-5.3106,-0.3155a1.05,1.05 0 0 0 -1.1104,0.9859l-0.0083,0.1398a1.05,1.05 0 0 0 0.9859,1.1104l5.3106,0.3155a1.05,1.05 0 0 0 1.1104,-0.9859l0.0083,-0.1398zm111.3074,23.9867a1.72,1.72 0 0 0 -1.714,-1.726l-6.16,-0.0215a1.72,1.72 0 0 0 -1.726,1.714l-0.05,14.3199a1.72,1.72 0 0 0 1.714,1.726l6.16,0.0215a1.72,1.72 0 0 0 1.726,-1.714l0.05,-14.3199zm-114.585,146.8532q1.59,0.57 2.56,0.59q41.26,0.65 82.22,-0.02q3.15,-0.05 3.04,-3.21l-0.27,-7.89a0.7,0.7 0 0 0 -0.63,-0.67c-6.75,-0.67 -15.46,-0.08 -20.07,-0.09q-32.66,-0.09 -65.37,0.1q-2.13,0.02 -2.12,2.15l0.06,8.22a0.89,0.89 0 0 0 0.58,0.82z"
       fill="#3e3845" />
    <path
       id="svg_234"
       d="m245.68,142.44q0.53,1.7 2.32,1.58q13.36,-0.87 30.65,1.23l0.12,47.98q-1.29,-2.89 -4.11,-1.25a1.62,1.61 -58.7 0 1 -0.93,0.23q-9.98,-0.49 -29.04,-0.29q-39.58,0.43 -108.69,-0.25q-1.89,-0.02 -6.26,1.74c-0.59,-1.08 -1.29,-1.69 -2.62,-1.67q-13.19,0.15 -26.46,-0.26a1.2,1.2 0 0 0 -1.2,1.51q1.08,4.11 6.04,3.8q-1.94,1.06 -2.94,3.13a0.64,0.63 -70.8 0 1 -0.71,0.35q-0.8,-0.18 -1.23,-0.94q-0.26,-0.47 -0.67,-0.82l-4.07,-3.41a1.14,1.12 22.8 0 1 -0.4,-0.96l0.3,-3.52q2.6,-0.13 4.6,-1.84a1.04,1.03 -20.1 0 0 0.37,-0.79l0,-25.88q0,-0.41 0.17,-0.78l0.37,-0.78a0.37,0.37 0 0 0 -0.32,-0.53l-0.97,-0.06l3,-3c9.54,-0.31 21.85,1.57 33.96,-1.46c0.11,0.72 0.85,1.18 1.58,1.18q47.22,0.04 94.56,0.18a0.98,0.97 17.7 0 0 0.79,-0.4q5.25,-7.26 11.79,-14.02zm-128.7175,21.076a0.66,0.66 0 0 0 -0.6577,-0.6623l-2.1,-0.0073a0.66,0.66 0 0 0 -0.6623,0.6577l-0.085,24.3399a0.66,0.66 0 0 0 0.6577,0.6623l2.1,0.0073a0.66,0.66 0 0 0 0.6623,-0.6577l0.085,-24.3399zm-8.0325,0.9477a1.37,1.37 0 0 0 -1.3748,-1.3652l-0.92,0.0032a1.37,1.37 0 0 0 -1.3652,1.3748l0.08,22.9198a1.37,1.37 0 0 0 1.3748,1.3652l0.92,-0.0032a1.37,1.37 0 0 0 1.3652,-1.3748l-0.08,-22.9198zm16.3921,-0.1425a1.04,1.04 0 0 0 -1.0327,-1.0473l-1.04,-0.0072a1.04,1.04 0 0 0 -1.0472,1.0327l-0.1643,23.5394a1.04,1.04 0 0 0 1.0327,1.0473l1.04,0.0072a1.04,1.04 0 0 0 1.0472,-1.0327l0.1643,-23.5394zm142.7831,14.059a1.51,1.51 0 0 0 -1.5179,-1.5021l-8.3599,0.0438a1.51,1.51 0 0 0 -1.5021,1.5179l0.0095,1.82a1.51,1.51 0 0 0 1.5179,1.5021l8.3599,-0.0438a1.51,1.51 0 0 0 1.5021,-1.5179l-0.0095,-1.82z"
       fill="#6c6475" />
    <path
       id="svg_235"
       d="m94.57,144.09q-7.35,8.94 -14.77,17.69q-2.21,2.61 -4.8,2.78c1.62,-3.2 4.9,-5.88 6.54,-7.78q5.98,-6.9 13.03,-12.69z"
       fill="#b2adb6" />
    <path
       id="svg_236"
       d="m320,145.71q-2.43,0.58 -4.25,-0.92q2.38,-0.78 4.25,0.92z"
       fill="#867e8f" />
    <path
       id="svg_237"
       d="m278.65,145.25q3.42,2.66 7.1,3.29c-0.08,22.43 0.38,44.92 -0.34,67.34a0.79,0.78 80.2 0 1 -0.49,0.7q-3.01,1.27 -6.13,0.42l-0.02,-23.77l-0.12,-47.98z"
       fill="#dfdde1" />
    <path
       id="svg_238"
       d="m157.94,147.75l9.97,0a0.3,0.3 0 0 1 0.23,0.5l-3.34,3.9a0.3,0.3 0 0 1 -0.23,0.1l-9.45,0a0.3,0.3 0 0 1 -0.25,-0.48l2.83,-3.9a0.3,0.3 0 0 1 0.24,-0.12z"
       fill="#3e3845" />
    <path
       id="svg_239"
       d="m152.49,148.74c-2.1,4.79 -7.44,3.24 -11.46,3.23a0.48,0.48 0 0 1 -0.48,-0.51c0.18,-3.96 7.59,-3.42 11.63,-3.21a0.35,0.35 0 0 1 0.31,0.49z"
       fill="#3e3845" />
    <path
       id="svg_240"
       d="m285.75,148.54l0.75,0q0.91,31.71 0.5,56.46q-0.01,0.81 0.25,1.04l-0.2,0.3a0.47,0.46 41.8 0 0 0.04,0.58l0.49,0.54q-1.23,5.16 -0.33,10.5q-1.15,0.47 -0.85,1.97a0.49,0.49 0 0 1 -0.48,0.58l-6.63,0.04a0.55,0.55 0 0 1 -0.55,-0.56l0.05,-2.99q3.12,0.85 6.13,-0.42a0.79,0.78 80.2 0 0 0.49,-0.7c0.72,-22.42 0.26,-44.91 0.34,-67.34z"
       fill="#b2adb6" />
    <path
       id="svg_241"
       d="m286.5,148.54q9.41,-0.06 18.85,-0.05c4.39,0.01 6.96,1.49 9.89,4.36a1.38,1.38 0 0 1 0.41,0.85c2.2,19.69 0.9,40.24 0.84,60.08a1.12,1.1 69.4 0 1 -0.37,0.83c-1.93,1.71 -3.67,3.12 -6.47,3q-11.2,-0.5 -22.4,0.35q-0.9,-5.34 0.33,-10.5q11.04,1.09 21.67,0c1.4,0.5 1.51,3.02 0.25,3.33q-7.5,-0.56 -17.6,0.24a1.56,1.54 -6.6 0 0 -1.41,1.76l0.07,0.56a0.73,0.71 -1.4 0 0 0.66,0.61c4.74,0.33 15.19,1.65 18.03,-2l0.32,0.03a0.37,0.36 89.9 0 1 0.32,0.33l0.42,3.98q0.19,1.77 0.87,0.13q0.97,-2.38 0.1,-4.84a1.39,1.35 45.9 0 1 0,-0.91q1.1,-3.06 -1.53,-4.64q-11.24,-1.13 -22.5,0q-0.26,-0.23 -0.25,-1.04q0.41,-24.75 -0.5,-56.46zm20.6901,5.0708a1.65,1.65 0 0 0 -1.6384,-1.6615l-14.1197,-0.0985a1.65,1.65 0 0 0 -1.6614,1.6384l-0.0007,0.1a1.65,1.65 0 0 0 1.6384,1.6615l14.1197,0.0985a1.65,1.65 0 0 0 1.6614,-1.6384l0.0007,-0.1zm0.9489,6.7806a1.95,1.95 0 0 0 -1.9669,-1.9329l-14.1195,0.1232a1.95,1.95 0 0 0 -1.9329,1.9669l0.0013,0.14a1.95,1.95 0 0 0 1.9669,1.9329l14.1195,-0.1232a1.95,1.95 0 0 0 1.9329,-1.9669l-0.0013,-0.14zm0.6873,8.9315a2.42,2.42 0 0 0 -2.4702,-2.3687l-13.9769,0.2927a2.42,2.42 0 0 0 -2.3688,2.4702l0.0033,0.16a2.42,2.42 0 0 0 2.4702,2.3687l13.9769,-0.2927a2.42,2.42 0 0 0 2.3688,-2.4702l-0.0033,-0.16zm-0.0369,9.7588a2.38,2.38 0 0 0 -2.3924,-2.3675l-13.6798,0.0716a2.38,2.38 0 0 0 -2.3675,2.3925l0.0009,0.18a2.38,2.38 0 0 0 2.3924,2.3675l13.6798,-0.0716a2.38,2.38 0 0 0 2.3675,-2.3925l-0.0009,-0.18zm0.1704,9.6119a2.56,2.56 0 0 0 -2.5644,-2.5555l-13.66,0.0238a2.56,2.56 0 0 0 -2.5555,2.5645l0.0003,0.18a2.56,2.56 0 0 0 2.5644,2.5555l13.66,-0.0238a2.56,2.56 0 0 0 2.5555,-2.5645l-0.0003,-0.18zm0.3094,9.7668a2.72,2.72 0 0 0 -2.7342,-2.7057l-13.4998,0.0707a2.72,2.72 0 0 0 -2.7057,2.7342l0.0013,0.24a2.72,2.72 0 0 0 2.7342,2.7057l13.4998,-0.0707a2.72,2.72 0 0 0 2.7057,-2.7342l-0.0013,-0.24z"
       fill="#dfdde1" />
    <path
       id="svg_242"
       d="m136.25,149.46l0.71,6.04c-12.11,3.03 -24.42,1.15 -33.96,1.46c1.78,-2.95 7.65,-4.1 10.7,-4.16l-0.86,2.09a0.37,0.37 0 0 0 0.29,0.51c4.5,0.62 8.7,1.11 9.87,-3.61q3.78,0.14 7.52,-0.5c2.06,-0.36 3.32,-1.8 5.73,-1.83z"
       fill="#645c6d" />
    <path
       id="svg_243"
       d="m123,151.79c-1.17,4.72 -5.37,4.23 -9.87,3.61a0.37,0.37 0 0 1 -0.29,-0.51l0.86,-2.09c2.45,-1.38 6.54,-1.21 9.3,-1.01z"
       fill="#dfdde1" />
    <rect
       id="svg_244"
       rx="1.65"
       height="3.4"
       width="17.42"
       transform="rotate(0.4, 298.48, 153.6)"
       y="151.90001"
       x="289.77001"
       fill="#3e3845" />
    <rect
       id="svg_245"
       rx="1.95"
       height="4.04"
       width="18.02"
       transform="rotate(-0.5, 299.13, 160.54)"
       y="158.51999"
       x="290.12"
       fill="#3e3845" />
    <path
       id="svg_246"
       d="m323.54,161.5l-0.08,3.5q-0.64,-0.48 -1.12,-0.51a1.08,1.08 0 0 0 -1.13,1.12l0.58,16.14l-0.08,0.5q-0.87,-1.43 -2.5,-1.69a0.65,0.63 1.9 0 1 -0.54,-0.56q-1,-9.72 1.32,-19.14q0.58,-2.35 2.71,-1.2q0.92,0.5 0.84,1.84z"
       fill="#6c6475" />
    <path
       id="svg_247"
       d="m347.21,182.25q-0.68,-11.32 0.22,-21.99q0.14,-0.74 0.62,-0.51a0.97,0.94 11 0 1 0.53,0.76c0.52,5.21 0.98,44.61 -0.3,45.64q-0.48,0.38 -0.49,-0.23l-0.58,-23.67z"
       fill="#b2adb6" />
    <path
       id="svg_248"
       d="m100,159.96l0.97,0.06a0.37,0.37 0 0 1 0.32,0.53l-0.37,0.78q-0.17,0.37 -0.17,0.78l0,25.88a1.04,1.03 -20.1 0 1 -0.37,0.79q-2,1.71 -4.6,1.84q-1.09,-12.67 -0.73,-25.1a1.27,1.27 0 0 1 0.36,-0.86l4.59,-4.7z"
       fill="#867e8f" />
    <path
       id="svg_249"
       d="m347.43,160.26q-0.9,10.67 -0.22,21.99c-5.46,-2.61 -16,-0.87 -21.98,-0.79a1.72,1.72 0 0 0 -1.7,1.72l-0.07,23.79a0.46,0.46 0 0 1 -0.55,0.45c-1.07,-0.22 -1.16,-22.57 -1.2,-25.17l0.08,-0.5l0.31,1.03a0.39,0.39 0 0 0 0.59,0.22c1.85,-1.23 0.82,-15.21 0.77,-18l0.08,-3.5q11.88,-2.14 23.89,-1.24z"
       fill="#867e8f" />
    <path
       id="svg_250"
       d="m380.9,168.41q-2.06,7.26 -1.19,14.84c-4.75,0.57 -9.1,-0.31 -14.02,0.66q-4.29,0.85 -9.9,0.34l-0.12,-19.8a1.66,1.66 0 0 1 1.54,-1.67q10.18,-0.73 20.36,0.17a1.53,1.52 67.6 0 1 0.88,0.37q2.47,2.1 2.45,5.09z"
       fill="#867e8f" />
    <rect
       id="svg_251"
       rx="0.66"
       height="25.66"
       width="3.42"
       transform="rotate(0.2, 115.21, 175.68)"
       y="162.84999"
       x="113.5"
       fill="#dfdde1" />
    <rect
       id="svg_252"
       rx="1.37"
       height="25.66"
       width="3.66"
       transform="rotate(-0.2, 107.14, 175.93)"
       y="163.09999"
       x="105.31"
       fill="#dfdde1" />
    <rect
       id="svg_253"
       rx="1.04"
       height="25.62"
       width="3.12"
       transform="rotate(0.4, 123.68, 176.08)"
       y="163.27"
       x="122.12"
       fill="#dfdde1" />
    <path
       id="svg_254"
       d="m352.4,164.65q0.72,1.73 0.85,4.61q0.46,10.29 -0.01,17.01a0.38,0.38 0 0 1 -0.55,0.31q-0.82,-0.39 -0.83,-1.9q-0.1,-13.92 0.29,-19.99q0.04,-0.55 0.25,-0.04z"
       fill="#867e8f" />
    <path
       id="svg_255"
       d="m323.46,165c0.05,2.79 1.08,16.77 -0.77,18a0.39,0.39 0 0 1 -0.59,-0.22l-0.31,-1.03l-0.58,-16.14a1.08,1.08 0 0 1 1.13,-1.12q0.48,0.03 1.12,0.51z"
       fill="#b2adb6" />
    <rect
       id="svg_256"
       rx="2.42"
       height="5"
       width="18.82"
       transform="rotate(-1.2, 299.42, 169.6)"
       y="167.10001"
       x="290.01001"
       fill="#3e3845" />
    <path
       id="svg_257"
       d="m380.9,168.41q2.16,12.2 0.29,24.21a0.44,0.43 9.4 0 1 -0.5,0.35c-0.61,-0.1 -0.63,-4.47 -0.69,-5.78q0.39,-1.26 -0.29,-3.94q-0.87,-7.58 1.19,-14.84z"
       fill="#b2adb6" />
    <path
       id="svg_258"
       d="m410.25,171.46l-22.25,0q-0.47,-1.03 -1.59,-1.41a0.6,0.6 0 0 1 -0.37,-0.76l0.11,-0.32a0.63,0.61 -79.7 0 1 0.6,-0.43l22.53,0.12a1.38,1.38 0 0 1 1.37,1.49q-0.03,0.42 -0.4,1.31z"
       fill="#645c6d" />
    <path
       id="svg_259"
       d="m66.25,169.79c-1.65,1.97 -0.71,21.08 -0.62,24.78a1.7,1.7 0 0 0 0.28,0.9q1.62,2.41 3.95,3.92c2.05,1.34 6.55,1.58 8.12,3.37q9.77,11.18 11.84,13.93c8.51,11.27 24.08,8.38 36.67,8.3q2.7,-0.02 4.88,1.58c4.46,3.28 8.88,8.44 9.15,14.3q0.29,6.32 -0.83,10.06c-7.59,25.23 -14.72,50.58 -18.12,76.77q-1.51,11.65 -2.63,22.36q-0.23,2.18 -1.8,3.7l-12.12,11.77q-1.29,1.26 -1.29,3.06l0.05,16.85q0.01,2.32 1.4,4.18q4.38,5.85 12.88,5.89q52.72,0.26 105.44,0.23q3.85,0 9,-1.7c-3.25,3.57 -6.64,4.81 -11.75,4.76q-51.31,-0.57 -102.61,-0.03c-8.07,0.09 -13.33,-1.91 -16.95,-9.01q-0.85,-8.3 -0.29,-16.6c0.41,-6.02 3.28,-10.17 7.69,-13.83c2.62,-2.18 4.29,-4.34 6.5,-6.67a1.55,1.51 -19.4 0 0 0.42,-0.85c1.24,-8.21 1.19,-16.9 3.12,-24.89c1.35,-5.57 2.23,-12.65 3.17,-16.99q1.75,-8.08 3.41,-16.18q2.74,-9.39 5.3,-18.83c2.59,-9.56 9.74,-26.22 5.94,-36.78c-1.03,-2.86 -7.46,-10.15 -10.45,-10.14c-9.02,0.01 -17.73,0.39 -26.68,-1.01c-4.76,-0.75 -8.49,-3.3 -11.23,-6.84q-7.36,-9.49 -12.35,-14.73q-7.83,-2.02 -12.1,-8.31q-1.15,-1.7 -1.17,-4.07q-0.11,-12.53 0.73,-20.03q0.27,-2.42 3.05,-3.22z"
       fill="#b2adb6" />
    <path
       id="svg_260"
       d="m451.75,173.46l-13,-1.72c2.55,-2.53 2.51,0.1 4.99,-0.16q4.74,-0.49 8.01,1.88z"
       fill="#b2adb6" />
    <path
       id="svg_261"
       d="m76.9,187.22l-0.19,-13.88a0.77,0.77 0 0 1 0.52,-0.74l3.2,-1.07a0.77,0.77 0 0 1 1.01,0.72l0.29,15.67a0.77,0.77 0 0 1 -0.93,0.77l-3.29,-0.73a0.77,0.77 0 0 1 -0.61,-0.74z"
       fill="#6c6475" />
    <path
       id="svg_262"
       d="m388,171.46l22.25,0l0.61,4.97a0.47,0.47 0 0 1 -0.48,0.53q-14.95,-0.1 -20.38,0.29q-1.19,0.08 -0.83,1.49q0.13,0.48 0.03,0.97l-0.22,1.15a0.66,0.66 0 0 0 0.64,0.78l21.49,0.08q1.79,0.01 3.02,-1.29l4.93,-5.19q0.78,-0.81 0.75,0.31l-0.35,12.48q-0.05,1.97 -1.07,0.28q-1.72,-2.83 -4.14,-3.94l-27.25,0.09q-1.74,-5.96 -1.46,-12.16a0.73,0.72 82.7 0 1 0.51,-0.67q0.92,-0.3 1.95,-0.17z"
       fill="#b2adb6" />
    <path
       id="svg_263"
       d="m73.83,179.6c-2.28,-1.46 -2.83,-6.44 1,-6.47a0.67,0.66 89.6 0 1 0.67,0.67l0.01,6.02a0.66,0.66 0 0 1 -0.69,0.67q-0.36,-0.01 -0.56,-0.41a1.23,1.21 -87.3 0 0 -0.43,-0.48z"
       fill="#6c6475" />
    <path
       id="svg_264"
       d="m434.54,180.25l-0.58,5l-8.4,-0.14a1.4,1.36 -23.9 0 1 -0.86,-0.32l-0.7,-0.58l-0.22,-7.24a0.51,0.51 0 0 1 0.53,-0.53l8.69,0.34a1.09,1.09 0 0 1 0.81,0.41q1,1.27 0.73,3.06z"
       fill="#dfdde1" />
    <path
       id="svg_265"
       d="m268.1147,180.2002a1.51,1.51 0 0 1 -1.5021,1.5179l-8.3599,0.0438a1.51,1.51 0 0 1 -1.5179,-1.5021l-0.0095,-1.82a1.51,1.51 0 0 1 1.5021,-1.5179l8.3599,-0.0438a1.51,1.51 0 0 1 1.5179,1.5021l0.0095,1.82zm-1.4347,-0.8123a0.59,0.59 0 0 0 -0.5889,-0.591l-7.92,-0.0138a0.59,0.59 0 0 0 -0.591,0.589l-0.0001,0.06a0.59,0.59 0 0 0 0.5889,0.591l7.92,0.0138a0.59,0.59 0 0 0 0.591,-0.589l0.0001,-0.06z"
       fill="#dfdde1" />
    <rect
       id="svg_266"
       rx="2.38"
       height="4.94"
       width="18.44"
       transform="rotate(-0.3, 299.57, 179.22)"
       y="176.75"
       x="290.35001"
       fill="#3e3845" />
    <rect
       id="svg_267"
       rx="0.59"
       height="1.24"
       width="9.1"
       transform="rotate(0.1, 262.13, 179.41)"
       y="178.79"
       x="257.58"
       fill="#6c6475" />
    <path
       id="svg_268"
       d="m434.54,180.25l1.46,1.21q-0.57,1.54 -0.08,3.09a0.68,0.68 0 0 0 0.65,0.47l13.62,-0.01a0.61,0.61 0 0 0 0.6,-0.7l-0.23,-1.43a0.77,0.76 -2.3 0 0 -0.71,-0.65l-13.6,-0.77c4.97,-1.07 8.73,-0.52 13.72,-0.73a1.22,1.2 -23.8 0 1 0.89,0.34l1.56,1.51a1.33,1.33 0 0 1 0.39,0.94c-0.02,4.35 -10.6,2.91 -14.29,2.74c-1.4,-0.06 -2.76,-1.11 -4.23,0.24l-0.33,-1.25l0.58,-5z"
       fill="#867e8f" />
    <path
       id="svg_269"
       d="m73.35,180.9q2.41,0.7 1.06,3.23a0.65,0.65 0 0 1 -0.76,0.32l-1.61,-0.46a0.76,0.74 8.6 0 1 -0.55,-0.73l0.01,-1a1.44,1.44 0 0 1 1.85,-1.36z"
       fill="#867e8f" />
    <path
       id="svg_270"
       d="m436,181.46l0.25,0l13.6,0.77a0.77,0.76 -2.3 0 1 0.71,0.65l0.23,1.43a0.61,0.61 0 0 1 -0.6,0.7l-13.62,0.01a0.68,0.68 0 0 1 -0.65,-0.47q-0.49,-1.55 0.08,-3.09z"
       fill="#dfdde1" />
    <path
       id="svg_271"
       d="m379.71,183.25q0.68,2.68 0.29,3.94l-22.78,0.3a1.21,1.18 -21.7 0 1 -0.86,-0.36q-1.06,-1.12 -0.57,-2.88q5.61,0.51 9.9,-0.34c4.92,-0.97 9.27,-0.09 14.02,-0.66z"
       fill="#6c6475" />
    <path
       id="svg_272"
       d="m414.25,184.37q-3.33,2.5 -6,2.43q-10.6,-0.27 -21.24,0.32a0.61,0.59 -6 0 1 -0.62,-0.49q-0.19,-1.1 0.61,-2.17l27.25,-0.09z"
       fill="#6c6475" />
    <path
       id="svg_273"
       d="m424,184.21l0.7,0.58a1.4,1.36 -23.9 0 0 0.86,0.32l8.4,0.14l0.33,1.25l-0.6,4.65a0.7,0.69 3.8 0 1 -0.69,0.6l-7.91,0a0.57,0.56 87.8 0 1 -0.56,-0.53l-0.53,-7.01z"
       fill="#6c6475" />
    <path
       id="svg_274"
       d="m460.54,184.25l0.33,0.22a0.3,0.29 -47.6 0 1 0.02,0.47q-2.39,1.92 -5.39,2.77l0.08,-0.31a1.12,1.1 83 0 1 0.53,-0.69l4.43,-2.46z"
       fill="#867e8f" />
    <path
       id="svg_275"
       d="m73.31,191.77a2.46,2.45 -73.8 0 1 -1.01,-1.84l-0.18,-3.23a0.6,0.59 -8.8 0 1 0.45,-0.61l2.15,-0.52a0.5,0.49 77.7 0 1 0.6,0.39c0.23,1.28 1.49,8.35 -2.01,5.81z"
       fill="#6c6475" />
    <rect
       id="svg_276"
       rx="2.56"
       height="5.3"
       width="18.78"
       transform="rotate(-0.1, 299.57, 188.8)"
       y="186.15"
       x="290.18001"
       fill="#3e3845" />
    <path
       id="svg_277"
       d="m451,191.71l-5.04,-0.21q2.53,-0.56 5.04,0.21z"
       fill="#6c6475" />
    <path
       id="svg_278"
       d="m129.74,193.41l1.18,2.16a1.02,1.02 0 0 1 -0.9,1.51l-24.52,-0.29q-4.96,0.31 -6.04,-3.8a1.2,1.2 0 0 1 1.2,-1.51q13.27,0.41 26.46,0.26c1.33,-0.02 2.03,0.59 2.62,1.67z"
       fill="#dfdde1" />
    <rect
       id="svg_279"
       rx="1.14"
       height="2.44"
       width="24.1"
       y="193.86"
       x="386.32"
       fill="#b2adb6" />
    <rect
       id="svg_280"
       rx="2.72"
       height="5.68"
       width="18.94"
       transform="rotate(-0.3, 299.8, 198.63)"
       y="195.79"
       x="290.32999"
       fill="#3e3845" />
    <path
       id="svg_281"
       d="m452,196.04c-3.06,3.45 -9.98,2.68 -13.46,3.46c0.73,-4.48 10.11,-3.81 13.46,-3.46z"
       fill="#b2adb6" />
    <path
       id="svg_282"
       d="m214.25,251.96l-4.22,-3.13a0.9,0.87 -71.4 0 1 -0.35,-0.73l0.57,-20.89a1.61,1.61 0 0 0 -1.6,-1.65l-26.33,-0.2a0.81,0.81 0 0 0 -0.82,0.81l0,22.58a0.89,0.88 12.7 0 0 0.51,0.8l20.39,9.75a0.95,0.94 12 0 1 0.54,0.82l0.27,6.93a1.05,1.05 0 0 1 -0.33,0.81c-1.89,1.83 -3.47,2.91 -6.31,2.9q-12.24,-0.04 -24.56,0.02q-1.64,0 -0.71,1.35l0.63,0.91a1.14,1.12 34.9 0 1 0.17,0.91q-3.97,17.18 -6.55,34.65a0.77,0.77 0 0 0 0.37,0.77l22.31,13.65q2.87,1.75 -0.49,1.67l-12.43,-0.26a1.56,1.56 0 0 1 -0.93,-0.33q-9.31,-7.02 -19.28,-13.09q-1.75,-1.06 -1.27,-3.04c0.53,-2.22 1.23,-4.57 1.6,-6.87q4.04,-24.98 9.99,-49.58q0.14,-0.57 -0.41,-0.36c-1.48,0.57 -11.28,53.28 -12.86,62.05c-0.26,1.43 -0.83,2.21 -2.39,1.69a0.77,0.77 0 0 1 -0.51,-0.86q4.11,-24.59 8.73,-49.04q2.55,-13.47 2.98,-16.5c1.43,-9.93 2.14,-17.16 -3.79,-25.93q-7.42,-10.97 -17.6,-20.09q-1.25,-1.12 0.43,-1.1l13.82,0.16a1.3,1.28 67.1 0 1 0.91,0.38l8.12,8.04a1.67,1.63 -21.2 0 0 1.12,0.48l15.41,0.41a0.61,0.6 0.5 0 1 0.59,0.59l0.07,2.82a1.49,1.48 89.6 0 0 1.46,1.45l11.74,0.16a0.61,0.61 0 0 0 0.62,-0.6l0.07,-3.76a0.85,0.84 0.7 0 1 0.86,-0.83l36.18,0.38a1.38,1.38 0 0 1 0.95,0.38l10.36,9.7q0.43,0.41 -0.17,0.42c-4.15,0.04 -16.01,-1.33 -19,0.63c-3.62,2.38 -4.92,5.02 -4.89,9.58q0.07,10.13 0.01,20.21a0.56,0.56 0 0 1 -0.52,0.55q-1.79,0.12 -3.46,-0.57zm-40.9222,-35.7523a1.02,0.64 81.1 0 0 0.4745,-1.1067a1.02,0.64 81.1 0 0 -0.7901,-0.9087a1.02,0.64 81.1 0 0 -0.4745,1.1067a1.02,0.64 81.1 0 0 0.7901,0.9087zm44.0622,2.8823l-49.62,-0.37q-0.61,-0.01 -0.28,0.51l1.65,2.55a1.07,1.06 73.7 0 0 0.87,0.48c8.45,0.12 17.16,-0.53 25.24,-0.42q10.47,0.14 20.94,-0.17c1.13,-0.03 2.28,-0.59 2.06,-1.86a0.89,0.88 -4.7 0 0 -0.86,-0.72z"
       fill="#dfdde1" />
    <rect
       id="svg_283"
       rx="0.84"
       height="2.1"
       width="5.24"
       transform="rotate(5.8, 105.87, 203.67)"
       y="202.62"
       x="103.25"
       fill="#b2adb6" />
    <rect
       id="svg_284"
       rx="0.86"
       height="2.16"
       width="5.46"
       transform="rotate(2.8, 127.99, 203.64)"
       y="202.56"
       x="125.26"
       fill="#b2adb6" />
    <rect
       id="svg_285"
       rx="0.68"
       height="2.24"
       width="5.24"
       transform="rotate(-1.5, 116.89, 203.9)"
       y="202.77999"
       x="114.27"
       fill="#b2adb6" />
    <path
       id="svg_286"
       d="m433.25,204.79q-4.77,1.37 -9.75,0.92q4.53,-3.24 9.75,-0.92z"
       fill="#b2adb6" />
    <rect
       id="svg_287"
       rx="0.52"
       height="1.48"
       width="10.94"
       transform="rotate(1.3, 173.62, 206.52)"
       y="205.78"
       x="168.15"
       fill="#6c6475" />
    <path
       id="svg_288"
       d="m309.75,206.04l-0.5,1.42q-10.63,1.09 -21.67,0l-0.49,-0.54a0.47,0.46 41.8 0 1 -0.04,-0.58l0.2,-0.3q11.26,-1.13 22.5,0z"
       fill="#3e3845" />
    <rect
       id="svg_290"
       rx="0.67"
       height="1.4"
       width="9.92"
       transform="rotate(0.3, 187.48, 206.47)"
       y="205.77"
       x="182.52"
       fill="#867e8f" />
    <path
       id="svg_291"
       d="m309.75,206.04q2.63,1.58 1.53,4.64a1.39,1.35 45.9 0 0 0,0.91q0.87,2.46 -0.1,4.84q-0.68,1.64 -0.87,-0.13l-0.42,-3.98a0.37,0.36 89.9 0 0 -0.32,-0.33l-0.32,-0.03l0.25,-1.17c1.26,-0.31 1.15,-2.83 -0.25,-3.33l0.5,-1.42z"
       fill="#867e8f" />
    <rect
       id="svg_292"
       rx="1.05"
       height="2.24"
       width="7.42"
       transform="rotate(3.4, 118.51, 211.31)"
       y="210.19"
       x="114.8"
       fill="#b2adb6" />
    <path
       id="svg_293"
       d="m309.5,210.79l-0.25,1.17c-2.84,3.65 -13.29,2.33 -18.03,2a0.73,0.71 -1.4 0 1 -0.66,-0.61l-0.07,-0.56a1.56,1.54 -6.6 0 1 1.41,-1.76q10.1,-0.8 17.6,-0.24z"
       fill="#3e3845" />
    <path
       id="svg_294"
       d="m415.25,212.54q-1.16,1.99 -2.76,1.98q-15.7,-0.09 -23.97,0.56c-3.01,0.24 -6.15,2.4 -9.08,2.9q-6.82,1.18 -12.69,1.03q-9.12,-0.24 -15.01,0.21q1.72,-3.01 4.76,-3.18q12.36,-0.68 24.76,-0.25q2.04,0.07 6.14,-2.98a1.56,1.52 -62.5 0 1 0.91,-0.3l26.94,0.03z"
       fill="#b2adb6" />
    <ellipse
       id="svg_295"
       ry="0.64"
       rx="1.02"
       transform="rotate(81.1, 173.17, 215.2)"
       cy="215.2"
       cx="173.17"
       fill="#867e8f" />
    <path
       id="svg_296"
       d="m217.39,219.09a0.89,0.88 -4.7 0 1 0.86,0.72c0.22,1.27 -0.93,1.83 -2.06,1.86q-10.47,0.31 -20.94,0.17c-8.08,-0.11 -16.79,0.54 -25.24,0.42a1.07,1.06 73.7 0 1 -0.87,-0.48l-1.65,-2.55q-0.33,-0.52 0.28,-0.51l49.62,0.37z"
       fill="#3e3845" />
    <path
       id="svg_297"
       d="m347.04,221.25q0.01,0.99 -1,1.25l-5.06,-0.83q3.04,-0.93 6.06,-0.42z"
       fill="#867e8f" />
    <path
       id="svg_298"
       d="m340.98,221.67l5.06,0.83q-2.1,1.36 -4.05,1.29c-7.52,-0.3 -20.94,-1.79 -26.48,1.96c-3.89,2.65 -5.27,3.27 -9.8,3.74c-6.55,0.67 -13.29,0.23 -19.91,0.76c-3.91,0.31 -6.43,2.98 -10.8,2.83q-12.75,-0.45 -22.96,0.34c-2.63,0.21 -5.02,1.03 -7.72,1.55c1.58,-2.88 3.35,-4.45 6.89,-4.46q9.35,-0.02 18.68,-0.01c2.58,0 6.64,0.57 10.12,-0.12c1.88,-0.37 4.03,-2.6 5.55,-2.61q11.45,-0.03 22.99,-0.03a4.96,4.94 27.9 0 0 2.76,-0.84l5.34,-3.63q2.22,-1.5 4.89,-1.52l19.44,-0.08z"
       fill="#b2adb6" />
    <path
       id="svg_299"
       d="m214.25,251.96q-1.69,1.64 -3.9,1.62a0.53,0.53 0 0 0 -0.54,0.49c-0.45,6.07 -1.9,13.41 -1.15,19.37a1.1,1.09 63.5 0 1 -0.29,0.88l-7.31,7.67a0.63,0.62 -53.7 0 1 -0.74,0.12q-10.8,-5.77 -23.26,-4.64q-0.41,0.03 -0.1,0.31q0.17,0.17 0.54,0.21c6.89,0.76 14.12,1.06 20.48,4.12a2.09,2.09 0 0 1 1.17,2.11l-1.02,8.79a0.53,0.52 15 0 1 -0.73,0.42c-2.57,-1.1 -23.73,-8.69 -24.75,-7.65a0.56,0.55 30.7 0 0 0.24,0.92l23.43,7.08a0.59,0.58 13.6 0 1 0.41,0.67l-2.34,12.99a0.41,0.41 0 0 1 -0.57,0.3c-2.44,-1.09 -19.39,-7.63 -20.82,-6.64q-0.32,0.22 0.05,0.35l18.8,6.48q2.15,0.74 1.74,2.98c-0.65,3.56 -1.42,7.32 -1.77,11.19c-0.21,2.22 -1.47,3.88 -1.95,5.64q-2.03,7.56 -1.99,15.54l-0.47,-0.04a1.12,1.11 71 0 1 -0.71,-0.35c-8.63,-9.61 -18.08,-13.7 -32.79,-22.28a0.89,0.87 -44.4 0 0 -0.89,0l-7.52,4.35l-1.74,-9.06a0.84,0.84 0 0 1 0.28,-0.81l1.85,-1.57a0.61,0.6 52.2 0 0 0.1,-0.82l-1.24,-1.74q1.89,-3.95 1.23,-8.42q0.87,-3.55 -0.77,-6.93c-0.86,-1.78 -0.95,-2.89 -0.32,-4.61q5.72,-2.11 4.53,-8.2q2.55,-2.4 -0.12,-6.18q-1.26,-1.78 -1.22,-3.97q0.11,-6 1.9,-11.67a0.53,0.52 -59.1 0 1 0.86,-0.22l2.73,2.59a0.5,0.5 0 0 0 0.68,0l0.4,-0.38a0.45,0.45 0 0 0 -0.09,-0.73q-4.16,-2.34 -6.38,-6.6a1.15,1.14 -25.9 0 1 0.55,-1.58q5.22,-2.36 9.14,-6.55a0.77,0.76 35.2 0 1 0.9,-0.15l2.19,1.14q-0.43,3.03 -2.98,16.5q-4.62,24.45 -8.73,49.04a0.77,0.77 0 0 0 0.51,0.86c1.56,0.52 2.13,-0.26 2.39,-1.69c1.58,-8.77 11.38,-61.48 12.86,-62.05q0.55,-0.21 0.41,0.36q-5.95,24.6 -9.99,49.58c-0.37,2.3 -1.07,4.65 -1.6,6.87q-0.48,1.98 1.27,3.04q9.97,6.07 19.28,13.09a1.56,1.56 0 0 0 0.93,0.33l12.43,0.26q3.36,0.08 0.49,-1.67l-22.31,-13.65a0.77,0.77 0 0 1 -0.37,-0.77q2.58,-17.47 6.55,-34.65a1.14,1.12 34.9 0 0 -0.17,-0.91l-0.63,-0.91q-0.93,-1.35 0.71,-1.35q12.32,-0.06 24.56,-0.02c2.84,0.01 4.42,-1.07 6.31,-2.9a1.05,1.05 0 0 0 0.33,-0.81l-0.27,-6.93a0.95,0.94 12 0 0 -0.54,-0.82l-20.39,-9.75a0.89,0.88 12.7 0 1 -0.51,-0.8l0,-22.58a0.81,0.81 0 0 1 0.82,-0.81l26.33,0.2a1.61,1.61 0 0 1 1.6,1.65l-0.57,20.89a0.9,0.87 -71.4 0 0 0.35,0.73l4.22,3.13zm-25.91,-20.69a0.66,0.66 0 0 0 -0.43,1.15l4.86,4.38a0.66,0.66 0 0 0 1.1,-0.55l-0.39,-4.45a0.66,0.66 0 0 0 -0.67,-0.6l-4.47,0.07zm9.6,0.28q-2.24,-2.12 -1.95,0.95l0.66,6.94q0.09,1.03 0.76,0.24l0.96,-1.15a0.83,0.82 22 0 1 0.69,-0.29l4.28,0.28q2.1,0.13 0.57,-1.31l-5.97,-5.66z"
       fill="#645c6d" />
    <path
       id="svg_300"
       d="m188.34,231.27l4.47,-0.07a0.66,0.66 0 0 1 0.67,0.6l0.39,4.45a0.66,0.66 0 0 1 -1.1,0.55l-4.86,-4.38a0.66,0.66 0 0 1 0.43,-1.15z"
       fill="#dfdde1" />
    <path
       id="svg_301"
       d="m197.94,231.55l5.97,5.66q1.53,1.44 -0.57,1.31l-4.28,-0.28a0.83,0.82 22 0 0 -0.69,0.29l-0.96,1.15q-0.67,0.79 -0.76,-0.24l-0.66,-6.94q-0.29,-3.07 1.95,-0.95z"
       fill="#dfdde1" />
    <rect
       id="svg_302"
       rx="1.72"
       height="17.76"
       width="9.6"
       transform="rotate(0.2, 228.7, 242.59)"
       y="233.71"
       x="223.9"
       fill="#645c6d" />
    <path
       id="svg_304"
       d="m237.25,261.04c-3.32,2.97 -6.18,2.2 -9.66,4.12q-1.65,0.91 -3.3,1.84q-0.75,-3.92 2.77,-5.69q1.74,-0.87 10.19,-0.27z"
       fill="#b2adb6" />
    <path
       id="svg_305"
       d="m220.96,279.5l-0.84,1.9a1.1,1.08 -83.4 0 1 -0.78,0.63q-3.23,0.66 -5.91,2.46a0.5,0.5 0 0 1 -0.74,-0.22l-0.44,-1.06c0.99,-3.37 5.78,-2.91 8.71,-3.71z"
       fill="#b2adb6" />
    <path
       id="svg_306"
       d="m149.42,282.8q1.19,6.09 -4.53,8.2q-5.09,-6.09 0.95,-10.25a1.27,1.22 -56.9 0 1 0.91,-0.21q1.92,0.31 2.67,2.26z"
       fill="#dfdde1" />
    <path
       id="svg_308"
       d="m145.98,302.54q0.66,4.47 -1.23,8.42c-3.16,4.16 -7.54,-7.3 -2.57,-9.13q1.8,-0.66 3.8,0.71z"
       fill="#dfdde1" />
    <path
       id="svg_309"
       d="m187.88,343.28q2.7,1.17 6.19,0.71a0.58,0.57 77.8 0 1 0.63,0.41q1.72,6.26 6.29,10.95q0.25,1.75 -0.99,1.9q-7.02,0.83 -17.38,0.57l-11.4,-12.43a1.99,1.99 0 0 0 -1.46,-0.64l-25.78,0q-1.9,0 -3.48,1.08c-2.67,1.82 -6.83,5.49 -10.09,5.42q-0.49,-8.38 0.84,-16.71l14.25,-9.58l7.52,-4.35a0.89,0.87 -44.4 0 1 0.89,0c14.71,8.58 24.16,12.67 32.79,22.28a1.12,1.11 71 0 0 0.71,0.35l0.47,0.04z"
       fill="#dfdde1" />
    <path
       id="svg_310"
       d="m125.71,333q2.32,2.22 5.54,1.54q-1.33,8.33 -0.84,16.71q-2.29,0.34 -5.87,-0.5l1.17,-17.75z"
       fill="#b2adb6" />
    <path
       id="svg_312"
       d="m182.62,357.82q10.36,0.26 17.38,-0.57q1.24,-0.15 0.99,-1.9q1.06,1.13 2.86,1.41q1.74,0.27 0.6,1.61q-3.19,3.78 -7.72,5.73a0.51,0.51 0 0 0 -0.24,0.72c1.46,2.55 17.83,-1.48 22.44,1.42q1.99,1.25 3.35,3.2a1.6,1.57 -63.5 0 1 0.28,0.87l0.06,10.53q0.02,2.45 -2.43,2.43l-8.88,-0.06a0.57,0.57 0 0 1 -0.56,-0.57l0,-10.39a1.24,1.22 20.2 0 0 -0.44,-0.94l-4.47,-3.72a1.51,1.51 0 0 0 -1.01,-0.34c-13.27,0.41 -30.52,-0.45 -39.67,-0.54q-21.93,-0.23 -45.04,0.06a1.84,1.84 0 0 1 -1.81,-1.43l-0.15,-0.66a1.65,1.64 81.5 0 1 1.47,-2l8.87,-0.72c7.28,1.66 9.79,-5.92 15.91,-7.21c5.73,-1.2 12.99,-0.74 18.93,-0.94a0.73,0.73 0 0 0 0.67,-0.52c0.67,-2.16 -15.62,-1.17 -17.25,-1.06c-7.21,0.49 -8.75,6.43 -14.32,7.31q4.87,-4.83 10.54,-8.71a3.82,3.82 0 0 1 2.21,-0.66l22.07,0.37a3.64,3.62 -23.9 0 1 2.33,0.89l9.42,8.18a3.85,3.84 63.6 0 0 2.76,0.93q1.73,-0.11 0.85,-2.72z"
       fill="#6c6475" />
    <path
       id="svg_313"
       d="m128.5,361.96l3.94,-2.42c5.57,-0.88 7.11,-6.82 14.32,-7.31c1.63,-0.11 17.92,-1.1 17.25,1.06a0.73,0.73 0 0 1 -0.67,0.52c-5.94,0.2 -13.2,-0.26 -18.93,0.94c-6.12,1.29 -8.63,8.87 -15.91,7.21z"
       fill="#645c6d" />
    <path
       id="svg_314"
       d="m118.94,382.3a0.89,0.89 0 0 1 -0.58,-0.82l-0.06,-8.22q-0.01,-2.13 2.12,-2.15q32.71,-0.19 65.37,-0.1c4.61,0.01 13.32,-0.58 20.07,0.09a0.7,0.7 0 0 1 0.63,0.67l0.27,7.89q0.11,3.16 -3.04,3.21q-40.96,0.67 -82.22,0.02q-0.97,-0.02 -2.56,-0.59z"
       fill="#dfdde1" />
    <path
       id="svg_316"
       d="m 13.29,434.75 c 11.196626,31.92045 45.075822,57.97477 72.551835,62.22719 49.932045,1.48079 99.881845,2.32571 156.722655,2.3208 56.84082,-0.005 121.41318,1.46459 174.18551,-1.63799 35.14,-3.94 65.51,-25.16 77.79,-58.91 1.22667,1.40667 2.7,1.82333 4.42,1.25 -1.60667,4.49333 -2.71333,7.21333 -3.32,8.16 -4.11,6.39 -8.12,13.5 -12.91,18.9 -17.36731,22.73752 -43.30429,34.73372 -72.34,36.38 -29.62314,1.8824 -58.50999,1.23146 -85.6,1.47 -61.86823,0.3384 -140.86853,0.18034 -184.98,-0.44 -44.111468,-0.62034 -64.503959,0.72167 -91.07,-15.7 -18.318258,-12.53402 -33.275959,-30.6234 -40.1,-49.73 1.692247,-1.44665 4.039304,-2.48739 4.65,-4.29 z"
       fill="#674b88"
       sodipodi:nodetypes="cczccccccczccc" />
  </g>
</svg>
